<svg width="146" height="40" viewBox="0 0 146 40" fill="none" xmlns="http://www.w3.org/2000/svg">
<rect x="0.5" y="0.5" width="145" height="39" rx="2.5" stroke="white" stroke-opacity="0.6"/>
<path d="M39.5682 15.528C37.5522 15.528 35.9682 17.052 35.9682 19.836C35.9682 22.656 37.4562 24.18 39.6162 24.18C40.7442 24.18 41.6082 23.688 42.1122 23.172L41.3682 22.212C40.8882 22.572 40.3962 22.908 39.6882 22.908C38.5002 22.908 37.6362 22.02 37.6362 19.836C37.6362 17.592 38.5242 16.752 39.6642 16.752C40.2402 16.752 40.7322 16.956 41.2002 17.352L42.0162 16.404C41.3322 15.84 40.6602 15.528 39.5682 15.528ZM47.9845 24H49.5805V15.708H47.9845V19.032H45.0445V15.708H43.4485V24H45.0445V20.292H47.9845V24ZM56.539 15.708H51.715V24H56.575V22.812H53.311V20.376H55.975V19.2H53.311V16.884H56.359L56.539 15.708ZM61.4263 15.528C59.4103 15.528 57.8263 17.052 57.8263 19.836C57.8263 22.656 59.3143 24.18 61.4743 24.18C62.6023 24.18 63.4663 23.688 63.9703 23.172L63.2263 22.212C62.7463 22.572 62.2543 22.908 61.5463 22.908C60.3583 22.908 59.4943 22.02 59.4943 19.836C59.4943 17.592 60.3823 16.752 61.5223 16.752C62.0983 16.752 62.5903 16.956 63.0583 17.352L63.8743 16.404C63.1903 15.84 62.5183 15.528 61.4263 15.528ZM66.9026 15.708H65.3066V24H66.9026V15.708ZM71.5466 15.708H69.8306L66.9626 19.572L69.8906 24H71.7746L68.6786 19.464L71.5466 15.708ZM77.67 15.708H76.074V24H77.67V15.708ZM85.1333 15.708H78.9773V16.968H81.2213V24H82.8173V16.968H84.9653L85.1333 15.708ZM92.7566 15.528C90.5366 15.528 89.1206 17.136 89.1206 19.86C89.1206 22.632 90.5366 24.18 92.7566 24.18C94.9766 24.18 96.3806 22.584 96.3806 19.848C96.3806 17.076 94.9766 15.528 92.7566 15.528ZM92.7446 16.74C94.0046 16.74 94.7006 17.628 94.7006 19.848C94.7006 22.092 93.9926 22.968 92.7446 22.968C91.5446 22.968 90.7886 22.092 90.7886 19.86C90.7886 17.628 91.5206 16.74 92.7446 16.74ZM104.137 15.708H102.529V21.204C102.529 22.368 102.061 22.944 101.041 22.944C100.021 22.944 99.5535 22.368 99.5535 21.204V15.708H97.9575V21.288C97.9575 22.992 98.9895 24.18 101.041 24.18C103.069 24.18 104.137 22.956 104.137 21.288V15.708ZM111.485 15.708H105.329V16.968H107.573V24H109.169V16.968H111.317L111.485 15.708Z" fill="white" fill-opacity="0.6"/>
</svg>
