<svg width="146" height="40" viewBox="0 0 146 40" fill="none" xmlns="http://www.w3.org/2000/svg">
<rect x="0.5" y="0.5" width="145" height="39" rx="2.5" stroke="black"/>
<path d="M41.6197 15.528C39.5797 15.528 37.8397 17.04 37.8397 19.848C37.8397 22.692 39.1357 24.18 41.4397 24.18C42.5677 24.18 43.5397 23.868 44.3557 23.364V19.308H41.3797L41.5477 20.484H42.7957V22.644C42.3997 22.872 41.9437 22.968 41.4757 22.968C40.1797 22.968 39.5077 22.116 39.5077 19.848C39.5077 17.616 40.5157 16.728 41.6917 16.728C42.3997 16.728 42.8677 16.944 43.4197 17.4L44.2838 16.5C43.5877 15.9 42.7837 15.528 41.6197 15.528ZM50.9761 15.708H46.1521V24H51.0121V22.812H47.7481V20.376H50.4121V19.2H47.7481V16.884H50.7961L50.9761 15.708ZM58.0474 15.708H51.8914V16.968H54.1354V24H55.7314V16.968H57.8794L58.0474 15.708ZM66.8827 24H68.5747L66.0067 15.708H64.0507L61.4707 24H63.1027L63.6187 22.08H66.3667L66.8827 24ZM63.9427 20.88L64.9987 16.92L66.0547 20.88H63.9427ZM77.7667 23.496C78.8707 22.908 79.6987 21.876 79.6987 19.848C79.6987 17.076 78.2947 15.528 76.0747 15.528C73.8547 15.528 72.4387 17.136 72.4387 19.86C72.4387 22.632 73.8547 24.144 75.9907 24.144C77.5147 24.144 78.3067 24.672 79.1467 25.524L80.1307 24.24C79.5067 23.796 78.7867 23.496 77.7667 23.496ZM74.1067 19.86C74.1067 17.628 74.8387 16.74 76.0627 16.74C77.3227 16.74 78.0187 17.628 78.0187 19.848C78.0187 22.092 77.3107 22.968 76.0627 22.968C74.8627 22.968 74.1067 22.092 74.1067 19.86ZM87.4322 15.708H85.8242V21.204C85.8242 22.368 85.3562 22.944 84.3362 22.944C83.3162 22.944 82.8482 22.368 82.8482 21.204V15.708H81.2522V21.288C81.2522 22.992 82.2842 24.18 84.3362 24.18C86.3642 24.18 87.4322 22.956 87.4322 21.288V15.708ZM92.6312 15.528C90.4112 15.528 88.9952 17.136 88.9952 19.86C88.9952 22.632 90.4112 24.18 92.6312 24.18C94.8512 24.18 96.2552 22.584 96.2552 19.848C96.2552 17.076 94.8512 15.528 92.6312 15.528ZM92.6192 16.74C93.8792 16.74 94.5752 17.628 94.5752 19.848C94.5752 22.092 93.8672 22.968 92.6192 22.968C91.4192 22.968 90.6632 22.092 90.6632 19.86C90.6632 17.628 91.3952 16.74 92.6192 16.74ZM103.046 15.708H96.8897V16.968H99.1337V24H100.73V16.968H102.878L103.046 15.708ZM109.109 15.708H104.285V24H109.145V22.812H105.881V20.376H108.545V19.2H105.881V16.884H108.929L109.109 15.708Z" fill="black"/>
</svg>
